<?xml version="1.0" encoding="utf-8"?>
<!-- Generator: Adobe Illustrator 18.0.0, SVG Export Plug-In . SVG Version: 6.00 Build 0)  -->
<!DOCTYPE svg PUBLIC "-//W3C//DTD SVG 1.1//EN" "http://www.w3.org/Graphics/SVG/1.1/DTD/svg11.dtd">
<svg version="1.1" id="Layer_1" xmlns="http://www.w3.org/2000/svg" xmlns:xlink="http://www.w3.org/1999/xlink" x="0px" y="0px"
	 viewBox="0 0 64 64" enable-background="new 0 0 64 64" xml:space="preserve">
<g>
	<g>
		<g>
			<path d="M32,28c-9.9,0-18,8.1-18,18s8.1,18,18,18s18-8.1,18-18S41.9,28,32,28z M37.6,54L32,50.9L26.4,54l1.1-6.5L23,42.9l6.2-1
				L32,36l2.8,5.9l6.2,1l-4.5,4.6L37.6,54z"/>
		</g>
	</g>
	<g>
		<g>
			<path d="M24,26.2L13,0L2,6l12,28C16.5,30.3,19.8,27.8,24,26.2z"/>
		</g>
	</g>
	<g>
		<g>
			<path d="M51,0L40,26.2c4.2,1.6,7.5,4.1,10,7.8L62,7L51,0z"/>
		</g>
	</g>
	<g>
		<g>
			<polygon points="42,12 47,0 17,0 22,12 			"/>
		</g>
	</g>
</g>
</svg>
